<mxfile host="app.diagrams.net" modified="2024-02-09T08:53:36.691Z" agent="Mozilla/5.0 (Windows NT 10.0; Win64; x64) AppleWebKit/537.36 (KHTML, like Gecko) Chrome/121.0.0.0 Safari/537.36" etag="N7v6yA4se4-qGs_TVZTU" version="23.1.2" type="github">
  <diagram id="C5RBs43oDa-KdzZeNtuy" name="Page-1">
    <mxGraphModel dx="2074" dy="1915" grid="1" gridSize="10" guides="1" tooltips="1" connect="1" arrows="1" fold="1" page="1" pageScale="1" pageWidth="827" pageHeight="1169" math="0" shadow="0">
      <root>
        <mxCell id="WIyWlLk6GJQsqaUBKTNV-0" />
        <mxCell id="WIyWlLk6GJQsqaUBKTNV-1" parent="WIyWlLk6GJQsqaUBKTNV-0" />
        <mxCell id="Jl4hCNYXZAjUs-OZSiLW-1" value="Unity Aspace Program" style="swimlane;whiteSpace=wrap;html=1;" vertex="1" parent="WIyWlLk6GJQsqaUBKTNV-1">
          <mxGeometry x="10" y="250" width="200" height="200" as="geometry" />
        </mxCell>
        <mxCell id="Jl4hCNYXZAjUs-OZSiLW-2" value="SSO Button" style="rounded=0;whiteSpace=wrap;html=1;" vertex="1" parent="Jl4hCNYXZAjUs-OZSiLW-1">
          <mxGeometry x="30" y="160" width="140" height="30" as="geometry" />
        </mxCell>
        <mxCell id="Jl4hCNYXZAjUs-OZSiLW-4" value="Login Button" style="rounded=0;whiteSpace=wrap;html=1;" vertex="1" parent="Jl4hCNYXZAjUs-OZSiLW-1">
          <mxGeometry x="30" y="120" width="140" height="30" as="geometry" />
        </mxCell>
        <mxCell id="Jl4hCNYXZAjUs-OZSiLW-3" value="Inside Unity Aspace Program" style="swimlane;whiteSpace=wrap;html=1;startSize=23;" vertex="1" parent="WIyWlLk6GJQsqaUBKTNV-1">
          <mxGeometry x="130" y="-50" width="200" height="200" as="geometry" />
        </mxCell>
        <mxCell id="Jl4hCNYXZAjUs-OZSiLW-5" value="" style="endArrow=classic;html=1;rounded=0;exitX=1;exitY=0.5;exitDx=0;exitDy=0;entryX=0.5;entryY=1;entryDx=0;entryDy=0;" edge="1" parent="WIyWlLk6GJQsqaUBKTNV-1" source="Jl4hCNYXZAjUs-OZSiLW-4" target="Jl4hCNYXZAjUs-OZSiLW-3">
          <mxGeometry width="50" height="50" relative="1" as="geometry">
            <mxPoint x="390" y="210" as="sourcePoint" />
            <mxPoint x="440" y="160" as="targetPoint" />
            <Array as="points">
              <mxPoint x="230" y="385" />
            </Array>
          </mxGeometry>
        </mxCell>
        <mxCell id="Jl4hCNYXZAjUs-OZSiLW-6" value="" style="endArrow=classic;html=1;rounded=0;exitX=1;exitY=0.5;exitDx=0;exitDy=0;entryX=0;entryY=0.5;entryDx=0;entryDy=0;" edge="1" parent="WIyWlLk6GJQsqaUBKTNV-1" source="Jl4hCNYXZAjUs-OZSiLW-10" target="Jl4hCNYXZAjUs-OZSiLW-9">
          <mxGeometry width="50" height="50" relative="1" as="geometry">
            <mxPoint x="390" y="610" as="sourcePoint" />
            <mxPoint x="320" y="425" as="targetPoint" />
          </mxGeometry>
        </mxCell>
        <mxCell id="Jl4hCNYXZAjUs-OZSiLW-7" value="Aspace Web app" style="swimlane;whiteSpace=wrap;html=1;" vertex="1" parent="WIyWlLk6GJQsqaUBKTNV-1">
          <mxGeometry x="400" y="250" width="200" height="200" as="geometry" />
        </mxCell>
        <mxCell id="Jl4hCNYXZAjUs-OZSiLW-8" value="Login Button" style="rounded=0;whiteSpace=wrap;html=1;" vertex="1" parent="Jl4hCNYXZAjUs-OZSiLW-7">
          <mxGeometry x="30" y="120" width="140" height="30" as="geometry" />
        </mxCell>
        <mxCell id="Jl4hCNYXZAjUs-OZSiLW-9" value="SSO Button" style="rounded=0;whiteSpace=wrap;html=1;" vertex="1" parent="Jl4hCNYXZAjUs-OZSiLW-7">
          <mxGeometry x="30" y="160" width="140" height="30" as="geometry" />
        </mxCell>
        <mxCell id="Jl4hCNYXZAjUs-OZSiLW-11" value="" style="endArrow=classic;html=1;rounded=0;exitX=1;exitY=0.5;exitDx=0;exitDy=0;entryX=0;entryY=0.5;entryDx=0;entryDy=0;" edge="1" parent="WIyWlLk6GJQsqaUBKTNV-1" source="Jl4hCNYXZAjUs-OZSiLW-2" target="Jl4hCNYXZAjUs-OZSiLW-10">
          <mxGeometry width="50" height="50" relative="1" as="geometry">
            <mxPoint x="180" y="425" as="sourcePoint" />
            <mxPoint x="390" y="425" as="targetPoint" />
          </mxGeometry>
        </mxCell>
        <mxCell id="Jl4hCNYXZAjUs-OZSiLW-10" value="Redirect to &lt;br&gt;Aspace Web App&lt;br&gt;to Open directly the &lt;br&gt;SSO Btn" style="text;html=1;align=center;verticalAlign=middle;resizable=0;points=[];autosize=1;strokeColor=none;fillColor=none;" vertex="1" parent="WIyWlLk6GJQsqaUBKTNV-1">
          <mxGeometry x="240" y="310" width="130" height="70" as="geometry" />
        </mxCell>
        <mxCell id="Jl4hCNYXZAjUs-OZSiLW-12" value="" style="endArrow=classic;html=1;rounded=0;exitX=1;exitY=0.5;exitDx=0;exitDy=0;entryX=0;entryY=0;entryDx=0;entryDy=0;endFill=1;" edge="1" parent="WIyWlLk6GJQsqaUBKTNV-1" source="Jl4hCNYXZAjUs-OZSiLW-9" target="Jl4hCNYXZAjUs-OZSiLW-23">
          <mxGeometry width="50" height="50" relative="1" as="geometry">
            <mxPoint x="390" y="310" as="sourcePoint" />
            <mxPoint x="680" y="425" as="targetPoint" />
            <Array as="points" />
          </mxGeometry>
        </mxCell>
        <mxCell id="Jl4hCNYXZAjUs-OZSiLW-13" value="inside&amp;nbsp; Aspace webapp" style="swimlane;whiteSpace=wrap;html=1;startSize=23;" vertex="1" parent="WIyWlLk6GJQsqaUBKTNV-1">
          <mxGeometry x="540" y="-50" width="200" height="200" as="geometry" />
        </mxCell>
        <mxCell id="Jl4hCNYXZAjUs-OZSiLW-14" value="" style="endArrow=classic;html=1;rounded=0;exitX=1;exitY=0.5;exitDx=0;exitDy=0;entryX=0.5;entryY=1;entryDx=0;entryDy=0;" edge="1" parent="WIyWlLk6GJQsqaUBKTNV-1" source="Jl4hCNYXZAjUs-OZSiLW-8" target="Jl4hCNYXZAjUs-OZSiLW-13">
          <mxGeometry width="50" height="50" relative="1" as="geometry">
            <mxPoint x="700" y="395" as="sourcePoint" />
            <mxPoint x="740" y="190" as="targetPoint" />
            <Array as="points">
              <mxPoint x="640" y="385" />
            </Array>
          </mxGeometry>
        </mxCell>
        <mxCell id="Jl4hCNYXZAjUs-OZSiLW-23" value="Microsoft Sign In page" style="rounded=0;whiteSpace=wrap;html=1;" vertex="1" parent="WIyWlLk6GJQsqaUBKTNV-1">
          <mxGeometry x="780" y="400" width="120" height="60" as="geometry" />
        </mxCell>
        <mxCell id="Jl4hCNYXZAjUs-OZSiLW-24" value="Cognito" style="rounded=0;whiteSpace=wrap;html=1;" vertex="1" parent="WIyWlLk6GJQsqaUBKTNV-1">
          <mxGeometry x="1020" y="270" width="120" height="60" as="geometry" />
        </mxCell>
        <mxCell id="Jl4hCNYXZAjUs-OZSiLW-26" value="" style="endArrow=classic;html=1;rounded=0;exitX=1;exitY=0.5;exitDx=0;exitDy=0;entryX=0;entryY=0.5;entryDx=0;entryDy=0;" edge="1" parent="WIyWlLk6GJQsqaUBKTNV-1" source="Jl4hCNYXZAjUs-OZSiLW-23" target="Jl4hCNYXZAjUs-OZSiLW-24">
          <mxGeometry width="50" height="50" relative="1" as="geometry">
            <mxPoint x="570" y="330" as="sourcePoint" />
            <mxPoint x="620" y="280" as="targetPoint" />
          </mxGeometry>
        </mxCell>
        <mxCell id="Jl4hCNYXZAjUs-OZSiLW-27" value="Id Token" style="edgeLabel;html=1;align=center;verticalAlign=middle;resizable=0;points=[];spacing=2;fontSize=16;" vertex="1" connectable="0" parent="Jl4hCNYXZAjUs-OZSiLW-26">
          <mxGeometry x="0.2333" y="-1" relative="1" as="geometry">
            <mxPoint x="-14" as="offset" />
          </mxGeometry>
        </mxCell>
        <mxCell id="Jl4hCNYXZAjUs-OZSiLW-29" value="AWS Database" style="rounded=0;whiteSpace=wrap;html=1;" vertex="1" parent="WIyWlLk6GJQsqaUBKTNV-1">
          <mxGeometry x="1260" y="400" width="120" height="60" as="geometry" />
        </mxCell>
        <mxCell id="Jl4hCNYXZAjUs-OZSiLW-30" value="" style="endArrow=classic;html=1;rounded=0;exitX=1;exitY=0.5;exitDx=0;exitDy=0;entryX=0;entryY=0.5;entryDx=0;entryDy=0;" edge="1" parent="WIyWlLk6GJQsqaUBKTNV-1" source="Jl4hCNYXZAjUs-OZSiLW-24" target="Jl4hCNYXZAjUs-OZSiLW-29">
          <mxGeometry width="50" height="50" relative="1" as="geometry">
            <mxPoint x="760" y="330" as="sourcePoint" />
            <mxPoint x="810" y="280" as="targetPoint" />
          </mxGeometry>
        </mxCell>
        <mxCell id="Jl4hCNYXZAjUs-OZSiLW-31" value="Generates New User" style="edgeLabel;html=1;align=center;verticalAlign=middle;resizable=0;points=[];fontSize=16;" vertex="1" connectable="0" parent="Jl4hCNYXZAjUs-OZSiLW-30">
          <mxGeometry x="0.1086" y="-4" relative="1" as="geometry">
            <mxPoint as="offset" />
          </mxGeometry>
        </mxCell>
        <mxCell id="Jl4hCNYXZAjUs-OZSiLW-32" value="" style="endArrow=classic;html=1;rounded=0;exitX=0;exitY=0.75;exitDx=0;exitDy=0;entryX=1;entryY=0.75;entryDx=0;entryDy=0;" edge="1" parent="WIyWlLk6GJQsqaUBKTNV-1" source="Jl4hCNYXZAjUs-OZSiLW-29" target="Jl4hCNYXZAjUs-OZSiLW-23">
          <mxGeometry width="50" height="50" relative="1" as="geometry">
            <mxPoint x="880" y="220" as="sourcePoint" />
            <mxPoint x="810" y="280" as="targetPoint" />
          </mxGeometry>
        </mxCell>
        <mxCell id="Jl4hCNYXZAjUs-OZSiLW-33" value="Generates New Token" style="edgeLabel;html=1;align=center;verticalAlign=middle;resizable=0;points=[];fontSize=16;" vertex="1" connectable="0" parent="Jl4hCNYXZAjUs-OZSiLW-32">
          <mxGeometry x="-0.1091" y="4" relative="1" as="geometry">
            <mxPoint as="offset" />
          </mxGeometry>
        </mxCell>
        <mxCell id="Jl4hCNYXZAjUs-OZSiLW-36" value="" style="endArrow=classic;html=1;rounded=0;exitX=0;exitY=1;exitDx=0;exitDy=0;entryX=1;entryY=1;entryDx=0;entryDy=0;" edge="1" parent="WIyWlLk6GJQsqaUBKTNV-1" source="Jl4hCNYXZAjUs-OZSiLW-23" target="Jl4hCNYXZAjUs-OZSiLW-9">
          <mxGeometry width="50" height="50" relative="1" as="geometry">
            <mxPoint x="760" y="330" as="sourcePoint" />
            <mxPoint x="810" y="280" as="targetPoint" />
          </mxGeometry>
        </mxCell>
        <mxCell id="Jl4hCNYXZAjUs-OZSiLW-37" value="Returns the &lt;br&gt;ID Token" style="edgeLabel;html=1;align=center;verticalAlign=middle;resizable=0;points=[];fontSize=16;" vertex="1" connectable="0" parent="Jl4hCNYXZAjUs-OZSiLW-36">
          <mxGeometry x="-0.1982" y="-1" relative="1" as="geometry">
            <mxPoint as="offset" />
          </mxGeometry>
        </mxCell>
        <mxCell id="Jl4hCNYXZAjUs-OZSiLW-38" value="" style="endArrow=classic;html=1;rounded=0;exitX=0;exitY=1;exitDx=0;exitDy=0;" edge="1" parent="WIyWlLk6GJQsqaUBKTNV-1" source="Jl4hCNYXZAjUs-OZSiLW-9">
          <mxGeometry width="50" height="50" relative="1" as="geometry">
            <mxPoint x="760" y="330" as="sourcePoint" />
            <mxPoint x="210" y="440" as="targetPoint" />
          </mxGeometry>
        </mxCell>
        <mxCell id="Jl4hCNYXZAjUs-OZSiLW-39" value="Pass the ID Token" style="edgeLabel;html=1;align=center;verticalAlign=middle;resizable=0;points=[];fontSize=16;" vertex="1" connectable="0" parent="Jl4hCNYXZAjUs-OZSiLW-38">
          <mxGeometry x="0.2182" y="-1" relative="1" as="geometry">
            <mxPoint as="offset" />
          </mxGeometry>
        </mxCell>
      </root>
    </mxGraphModel>
  </diagram>
</mxfile>
